PathFileType	4	(X/Y/Z)	/Users/itak/Documents/Research/Walk-IL/dataset/trc/00197_00008.trc
DataRate	CameraRate	NumFrames	NumMarkers	Units	OrigDataRate	OrigDataStartFrame	OrigNumFrames
100.000000	100.000000	4	53	mm	100.000000	188	755
Frame#	Time	RPSI			LPSI			L3			STRN			T10			C7			CLAV			RBAK			LBAK			LSHO			LUPA			LAEL			LAOL			LWTS			LWPS			LFRA			LIFD			LHPS			LHTS			RSHO			RUPA			RAEL			RAOL			RWTS			RWPS			RFRA			RIFD			RHTS			RHPS			RBHD			LFHD			RFHD			LBHD			LHIP			RHIP			RASI			LASI			LKNE			LTHI			LANK			LTIP			LTOE			LMT1			LMT5			LHEE			RKNE			RTHI			RANK			RTIP			RTOE			RMT1			RMT5			RHEE			
		X1	Y1	Z1	X2	Y2	Z2	X3	Y3	Z3	X4	Y4	Z4	X5	Y5	Z5	X6	Y6	Z6	X7	Y7	Z7	X8	Y8	Z8	X9	Y9	Z9	X10	Y10	Z10	X11	Y11	Z11	X12	Y12	Z12	X13	Y13	Z13	X14	Y14	Z14	X15	Y15	Z15	X16	Y16	Z16	X17	Y17	Z17	X18	Y18	Z18	X19	Y19	Z19	X20	Y20	Z20	X21	Y21	Z21	X22	Y22	Z22	X23	Y23	Z23	X24	Y24	Z24	X25	Y25	Z25	X26	Y26	Z26	X27	Y27	Z27	X28	Y28	Z28	X29	Y29	Z29	X30	Y30	Z30	X31	Y31	Z31	X32	Y32	Z32	X33	Y33	Z33	X34	Y34	Z34	X35	Y35	Z35	X36	Y36	Z36	X37	Y37	Z37	X38	Y38	Z38	X39	Y39	Z39	X40	Y40	Z40	X41	Y41	Z41	X42	Y42	Z42	X43	Y43	Z43	X44	Y44	Z44	X45	Y45	Z45	X46	Y46	Z46	X47	Y47	Z47	X48	Y48	Z48	X49	Y49	Z49	X50	Y50	Z50	X51	Y51	Z51	X52	Y52	Z52	X53	Y53	Z53	

189	1.88	-380.1903686523438	1023.705017089844	738.9241943359375	-463.0574340820312	1020.778442382812	826.2050170898438	-414.6990966796875	1054.242553710938	778.2392578125	-615.6578369140625	1266.912841796875	613.8807983398438	-383.0672912597656	1216.9267578125	798.18408203125	-443.4124755859375	1485.973266601562	765.8703002929688	-601.6954956054688	1380.331909179688	641.0244140625	-322.6662902832031	1313.0654296875	722.1001586914062	-496.2633361816406	1460.106567382812	850.5488891601562	-603.5242309570312	1445.390502929688	869.6618041992188	-608.0647583007812	1314.894409179688	953.4700317382812	-618.5333251953125	1100.7626953125	972.231201171875	-543.2977294921875	1082.989868164062	928.303466796875	-701.4728393554688	864.029296875	914.9874267578125	-645.02734375	848.7218017578125	986.7221069335938	-635.1796875	991.4476928710938	986.4251098632812	-692.9359130859375	679.6826782226562	901.4710693359375	-658.0421752929688	778.8831787109375	980.362548828125	-716.920166015625	785.4113159179688	935.1860961914062	-385.2951965332031	1465.315673828125	582.840576171875	-325.7536926269531	1398.962768554688	540.5096435546875	-281.9006042480469	1106.5322265625	513.2600708007812	-336.6389465332031	1102.122924804688	595.7611083984375	-429.8822937011719	893.2980346679688	444.4285583496094	-344.16845703125	865.7111206054688	452.8058776855469	-297.5462646484375	1033.59130859375	483.8622436523438	-478.1221618652344	709.1192016601562	461.5108337402344	-457.2108459472656	800.3097534179688	423.5908813476562	-377.8659057617188	785.9065551757812	440.5036926269531	-450.62158203125	1642.97216796875	674.61328125	-659.2330932617188	1687.4599609375	631.4989013671875	-564.1281127929688	1673.822631835938	544.7521362304688	-545.52001953125	1664.377807617188	770.0272827148438	-629.870361328125	966.8977661132812	837.2443237304688	-399.5435180664062	970.738525390625	543.7640991210938	-498.7603454589844	1003.406433105469	519.21435546875	-671.58203125	1008.775573730469	710.18798828125	-780.2163696289062	514.103515625	647.5285034179688	-751.9826049804688	637.9246826171875	720.4739379882812	-877.4826049804688	36.16643905639648	603.5718994140625	-835.6142578125	288.6450805664062	635.21728515625	-927.9893798828125	119.6886978149414	413.9634704589844	-868.6416015625	98.12408447265625	435.3105163574219	-951.68798828125	62.12419128417969	520.9291381835938	-791.1944580078125	26.09597587585449	622.7319946289062	-415.8111267089844	477.8454895019531	662.6803588867188	-433.4052124023438	731.5123291015625	544.4869384765625	-252.0255889892578	63.03585052490234	870.30810546875	-420.4264831542969	359.2691040039062	713.6448364257812	-463.3536376953125	43.38423156738281	806.9175415039062	-432.4873352050781	43.79656600952148	866.386962890625	-334.3740234375	41.95071792602539	788.7858276367188	-235.1566772460938	81.11302185058594	952.2576293945312	
190	1.89	-390.3027648925781	1024.078247070312	733.6270141601562	-475.1214904785156	1020.943176269531	819.5853271484375	-425.1939697265625	1054.11767578125	772.4507446289062	-623.1791381835938	1267.202514648438	606.2926025390625	-393.1567077636719	1216.258911132812	793.4774780273438	-452.4061279296875	1485.690185546875	761.0757446289062	-609.3079223632812	1380.462890625	634.0166625976562	-331.4450073242188	1312.555908203125	718.5886840820312	-506.2910766601562	1459.638671875	844.9684448242188	-613.6695556640625	1444.930419921875	862.990234375	-618.4593505859375	1314.41748046875	946.913330078125	-627.5713500976562	1100.458862304688	966.1646728515625	-552.2423095703125	1082.983032226562	922.4274291992188	-707.0917358398438	861.9915161132812	911.6383056640625	-650.2781982421875	848.5902099609375	983.4096069335938	-642.843017578125	991.2923583984375	981.4441528320312	-695.447265625	677.490966796875	900.6027221679688	-662.3385009765625	778.3995361328125	978.0625610351562	-721.2762451171875	783.443115234375	932.7827758789062	-391.9739074707031	1465.215454101562	578.7813720703125	-331.8886108398438	1398.9580078125	537.1998291015625	-287.2315673828125	1106.663208007812	510.7423400878906	-342.95947265625	1102.17578125	592.3837280273438	-432.9852600097656	892.3543090820312	440.2975769042969	-347.0384826660156	865.459228515625	449.7280883789062	-302.0115966796875	1033.682861328125	481.1755065917969	-479.8232421875	707.7903442382812	457.5295104980469	-459.2786560058594	798.9970703125	419.6039123535156	-379.9287109375	785.3709716796875	437.2839050292969	-458.4824829101562	1642.7685546875	669.81640625	-666.3584594726562	1687.451049804688	623.5494995117188	-569.9441528320312	1673.72802734375	538.2649536132812	-554.7471923828125	1664.287475585938	763.8213500976562	-641.497314453125	967.1519775390625	828.2800903320312	-406.2687377929688	970.7246704101562	538.309326171875	-505.4138488769531	1003.473754882812	512.0126342773438	-681.0669555664062	1008.687866210938	700.4166259765625	-787.354248046875	513.1343994140625	638.5318603515625	-760.2200927734375	637.2971801757812	710.598388671875	-878.7942504882812	33.99343490600586	602.244873046875	-840.1788940429688	286.6805114746094	628.5294189453125	-930.50146484375	111.031120300293	410.2301025390625	-870.728515625	91.18988800048828	431.9809875488281	-953.0565185546875	56.2887077331543	518.7340087890625	-792.2628784179688	26.40510559082031	621.8377075195312	-420.8252868652344	478.0246276855469	657.36767578125	-438.9072570800781	731.4412841796875	538.8139038085938	-252.9759216308594	66.31161499023438	870.296142578125	-424.2947998046875	359.3743896484375	709.0581665039062	-463.2824401855469	43.4242057800293	806.8213500976562	-432.854248046875	44.34329605102539	865.8746948242188	-334.572998046875	41.9227180480957	788.7377319335938	-237.0106201171875	86.63036346435547	952.0553588867188	
191	1.9	-400.4521789550781	1024.621948242188	727.9907836914062	-487.2775573730469	1021.44873046875	812.6983642578125	-435.7702026367188	1054.312744140625	766.3665161132812	-630.742919921875	1267.809326171875	598.58642578125	-403.3788757324219	1215.824462890625	788.690185546875	-461.4757080078125	1485.65478515625	756.2522583007812	-616.9151000976562	1380.880615234375	626.9222412109375	-340.3169250488281	1312.223510742188	715.0852661132812	-516.4080200195312	1459.416381835938	839.3168334960938	-623.8888549804688	1444.742065429688	856.223876953125	-628.9437866210938	1314.205322265625	940.2513427734375	-636.6452026367188	1100.413330078125	959.9826049804688	-561.1983032226562	1083.255981445312	916.4337158203125	-712.8239135742188	860.3707885742188	908.0191650390625	-655.6859130859375	848.796142578125	979.8108520507812	-650.5850219726562	991.4188232421875	976.2868041992188	-698.17138671875	675.78271484375	899.3024291992188	-666.8310546875	778.2705078125	975.41748046875	-725.7785034179688	781.9064331054688	930.0870971679688	-398.6061096191406	1465.345947265625	574.7599487304688	-338.011474609375	1399.173706054688	533.9883422851562	-292.5984497070312	1107.010864257812	508.266845703125	-349.3649291992188	1102.426879882812	588.9713134765625	-436.0467224121094	891.677734375	436.0324401855469	-349.8806457519531	865.4720458984375	446.6197204589844	-306.4820556640625	1034.017578125	478.49951171875	-481.4911499023438	706.724853515625	453.3076477050781	-461.2659606933594	797.9744873046875	415.4453735351562	-381.9557495117188	785.1267700195312	433.9716796875	-466.3744201660156	1642.864135742188	665.0258178710938	-673.4204711914062	1687.692993164062	615.4489135742188	-575.6458740234375	1673.869995117188	531.7052001953125	-564.0506591796875	1664.509521484375	757.498046875	-653.059814453125	967.7900390625	819.1885986328125	-413.3495483398438	970.880859375	532.4140014648438	-512.2171630859375	1003.723327636719	504.700927734375	-690.5706176757812	1008.894714355469	690.5546264648438	-794.38134765625	512.4095458984375	629.6592407226562	-768.3634033203125	636.92529296875	700.8876342773438	-880.1240234375	32.43713760375977	600.8504638671875	-844.8054809570312	285.2030334472656	621.73291015625	-932.938720703125	102.4305648803711	406.3584289550781	-872.7560424804688	84.52013397216797	428.5704040527344	-954.421875	50.73480224609375	516.4627075195312	-793.44970703125	27.42747497558594	620.8890380859375	-426.2532043457031	478.2742004394531	651.6583251953125	-444.7415161132812	731.5222778320312	532.9329223632812	-254.1595916748047	69.97674560546875	870.1989135742188	-428.4656677246094	359.5707397460938	704.1070556640625	-463.1781005859375	43.48328399658203	806.73876953125	-433.3096618652344	44.9597282409668	865.358154296875	-334.8280944824219	41.96085357666016	788.7138671875	-239.2758636474609	92.68145751953125	951.68310546875	
192	1.91	-410.5462036132812	1025.328979492188	722.0247192382812	-499.279052734375	1022.308471679688	805.5867919921875	-446.3231811523438	1054.846801757812	760.0042724609375	-638.3297119140625	1268.731811523438	590.7744140625	-413.673095703125	1215.666381835938	783.8056030273438	-470.6057434082031	1485.883544921875	751.3748779296875	-624.503662109375	1381.595458984375	619.7446899414062	-349.255126953125	1312.103271484375	711.5543212890625	-526.5913696289062	1459.47119140625	833.5816650390625	-634.1703491210938	1444.856201171875	849.3429565429688	-639.520263671875	1314.295288085938	933.4652709960938	-645.7937622070312	1100.665771484375	953.6582641601562	-570.1806640625	1083.843505859375	910.3109741210938	-718.6998901367188	859.1854248046875	904.0921020507812	-661.3134765625	849.3553466796875	975.9189453125	-658.453125	991.861083984375	970.9254760742188	-701.1093139648438	674.55029296875	897.5361328125	-671.559326171875	778.5205078125	972.4126586914062	-730.4569091796875	780.8038330078125	927.0609741210938	-405.1969299316406	1465.731689453125	570.754150390625	-344.1280822753906	1399.634521484375	530.8541259765625	-298.0003051757812	1107.600830078125	505.84228515625	-355.8516845703125	1102.90576171875	585.5203857421875	-439.0509033203125	891.29296875	431.63671875	-352.6990661621094	865.7704467773438	443.5105895996094	-310.9625854492188	1034.619018554688	475.8510131835938	-483.1349182128906	705.961669921875	448.8294677734375	-463.1712646484375	797.2771606445312	411.1012573242188	-383.9515991210938	785.1980590820312	430.5898132324219	-474.2804565429688	1643.273315429688	660.2361450195312	-680.4085083007812	1688.204467773438	607.2023315429688	-581.2313842773438	1674.273193359375	525.083740234375	-573.4207153320312	1665.049072265625	751.05615234375	-664.4475708007812	968.8573608398438	810.0209350585938	-420.7980041503906	971.2127685546875	526.0675659179688	-519.1359252929688	1004.15966796875	497.3293151855469	-700.0474853515625	1009.450927734375	680.6651000976562	-801.3643798828125	512.0018310546875	620.877685546875	-776.4859008789062	636.9534301757812	691.3178100585938	-881.4607543945312	31.4265022277832	599.3893432617188	-849.5513305664062	284.207763671875	614.87646484375	-935.2125244140625	94.16298675537109	402.4930419921875	-874.665771484375	78.29596710205078	425.2041320800781	-955.7709350585938	45.62210083007812	514.1900024414062	-794.74462890625	28.94426345825195	619.866455078125	-432.1575622558594	478.5620422363281	645.4837036132812	-450.9200134277344	731.7565307617188	526.8458862304688	-255.6477508544922	74.09298706054688	870.0692749023438	-432.9773559570312	359.8294982910156	698.7352905273438	-463.0270080566406	43.5565299987793	806.6698608398438	-433.8987731933594	45.63419723510742	864.8438110351562	-335.1356201171875	42.10447692871094	788.7544555664062	-242.0968933105469	99.31028747558594	951.1729125976562	
